<svg xmlns="http://www.w3.org/2000/svg" xmlns:xlink="http://www.w3.org/1999/xlink" width="1080" zoomAndPan="magnify" viewBox="0 0 810 809.999993" height="1080" preserveAspectRatio="xMidYMid meet" version="1.0"><defs><clipPath id="f8d811b8f6"><path d="M 247 441 L 793.949219 441 L 793.949219 772 L 247 772 Z M 247 441 " clip-rule="nonzero"/></clipPath><clipPath id="08447741c7"><path d="M 16.199219 0 L 732 0 L 732 810 L 16.199219 810 Z M 16.199219 0 " clip-rule="nonzero"/></clipPath></defs><g clip-path="url(#f8d811b8f6)"><path fill="#fe7936" d="M 645.710938 636.078125 C 670.03125 593.5625 683.929688 544.324219 683.929688 491.847656 C 683.929688 474.5 682.410156 457.511719 679.496094 441.003906 C 667.71875 506.472656 632.914062 563.953125 583.746094 604.71875 C 555.300781 628.308594 512.953125 623.527344 490.691406 594.023438 L 449.140625 538.976562 C 442.230469 529.8125 431.417969 524.433594 419.945312 524.433594 L 261.636719 524.433594 C 261.601562 524.433594 261.570312 524.441406 261.535156 524.441406 C 250.730469 524.511719 243.726562 535.90625 248.585938 545.585938 L 254.886719 558.128906 C 266.601562 581.464844 289.664062 596.976562 315.691406 599.027344 L 325.070312 599.761719 L 366.125 603 C 377.746094 603.914062 388.222656 610.34375 394.304688 620.289062 L 412.925781 650.738281 L 423.347656 667.792969 L 481.75 763.3125 C 482.789062 765.019531 484.09375 766.511719 485.578125 767.75 C 489.855469 771.332031 495.65625 772.824219 501.277344 771.4375 C 501.324219 771.425781 501.359375 771.414062 501.402344 771.40625 C 652.886719 734.015625 769.589844 608.359375 793.816406 452.121094 C 772.546875 532.273438 717.933594 598.851562 645.710938 636.078125 " fill-opacity="1" fill-rule="nonzero"/></g><g clip-path="url(#08447741c7)"><path fill="#280274" d="M 383.132812 627.117188 C 379.253906 620.769531 372.511719 616.632812 365.097656 616.050781 L 314.664062 612.078125 C 284.257812 609.683594 256.871094 591.269531 243.183594 564.011719 L 237.21875 552.125 C 232.972656 543.675781 232.875 533.566406 237.558594 525.347656 C 242.394531 516.871094 251.105469 511.65625 260.769531 511.359375 L 261.636719 511.339844 L 312.324219 511.339844 C 295.796875 485.253906 266.019531 470.582031 235.199219 473.464844 L 182.53125 478.382812 C 159.96875 480.492188 139.695312 464.9375 135.542969 442.664062 C 132.464844 426.15625 130.855469 409.128906 130.855469 391.722656 C 130.855469 303.484375 172.179688 224.898438 236.53125 174.265625 C 172.78125 216.242188 123.160156 277.941406 96.390625 350.691406 C 120.511719 175.441406 270.835938 40.453125 452.714844 40.453125 C 565.300781 40.453125 665.789062 92.183594 731.75 173.160156 C 661.65625 69.347656 543.039062 0.992188 408.425781 0.640625 C 192.957031 0.0820312 16.628906 175.65625 16.304688 391.132812 C 16.195312 466.984375 37.703125 537.796875 74.976562 597.789062 C 75.761719 599.058594 76.539062 600.328125 77.339844 601.589844 L 129.542969 592.738281 C 152.859375 588.792969 172.054688 611.335938 164.125 633.621094 C 163.90625 634.234375 163.765625 634.570312 163.765625 634.570312 C 197.375 646.789062 191.703125 679.527344 191.703125 679.527344 C 221.382812 693.0625 209.160156 720.996094 209.160156 720.996094 C 219.65625 725.335938 223.332031 733.816406 224.28125 736.59375 C 224.769531 738.007812 225.304688 739.40625 225.847656 740.808594 L 246.148438 792.894531 C 249.640625 801.847656 260.359375 809.175781 269.96875 809.175781 C 282.101562 809.175781 290.492188 797.054688 286.230469 785.699219 L 276.726562 760.414062 L 264.054688 726.683594 C 263.171875 724.324219 264.777344 721.746094 267.34375 721.558594 C 269.019531 721.433594 270.554688 722.53125 271.195312 724.085938 L 287.847656 764.171875 L 300.175781 793.847656 C 304.417969 804.0625 315.621094 809.925781 326.242188 806.824219 C 338.96875 803.109375 345.304688 788.859375 339.550781 776.925781 C 339.546875 776.917969 339.542969 776.90625 339.539062 776.894531 L 309.046875 713.90625 C 307.738281 711.207031 309.523438 708.027344 312.515625 707.738281 C 314.242188 707.570312 315.90625 708.464844 316.726562 709.992188 L 353.832031 779.140625 L 358.433594 787.714844 C 362.96875 796.167969 372.902344 800.570312 382.011719 797.558594 C 389.09375 795.214844 393.808594 789.292969 395.0625 782.59375 C 395.820312 778.507812 395.300781 774.136719 393.222656 770.117188 L 364.183594 713.839844 C 362.910156 711.363281 363.847656 708.1875 366.425781 707.121094 C 368.703125 706.171875 371.257812 707.148438 372.378906 709.253906 L 405.191406 771.246094 C 407.84375 776.253906 411.796875 780.136719 416.417969 782.699219 C 424.105469 786.964844 433.644531 787.570312 442.15625 783.554688 C 443.796875 782.785156 445.300781 781.851562 446.710938 780.828125 C 458.34375 772.378906 461.992188 756.117188 454.191406 743.34375 L 383.132812 627.117188 " fill-opacity="1" fill-rule="nonzero"/></g><path fill="#fe7936" d="M 99.4375 650.625 L 140.496094 643.8125 C 152.816406 641.765625 161.152344 630.125 159.105469 617.800781 C 157.0625 605.476562 145.414062 597.144531 133.09375 599.1875 L 92.03125 606.003906 C 79.707031 608.042969 71.378906 619.691406 73.421875 632.011719 C 75.464844 644.335938 87.113281 652.664062 99.4375 650.625 " fill-opacity="1" fill-rule="nonzero"/><path fill="#fe7936" d="M 180.058594 662.320312 C 178.015625 649.996094 166.367188 641.664062 154.042969 643.710938 L 97.996094 654.425781 C 85.675781 656.46875 77.339844 668.109375 79.386719 680.433594 C 81.429688 692.753906 93.078125 701.09375 105.398438 699.046875 L 161.449219 688.332031 C 173.769531 686.289062 182.101562 674.640625 180.058594 662.320312 " fill-opacity="1" fill-rule="nonzero"/><path fill="#fe7936" d="M 198.972656 708.878906 C 196.925781 696.550781 185.28125 688.222656 172.960938 690.265625 L 131.898438 697.074219 C 119.574219 699.121094 111.242188 710.769531 113.285156 723.09375 C 115.332031 735.414062 126.980469 743.742188 139.300781 741.699219 L 180.359375 734.890625 C 192.683594 732.84375 201.015625 721.203125 198.972656 708.878906 " fill-opacity="1" fill-rule="nonzero"/><path fill="#fe7936" d="M 201.476562 733.917969 L 167.753906 739.285156 C 155.429688 741.324219 147.101562 752.972656 149.144531 765.296875 C 151.1875 777.617188 162.835938 785.945312 175.15625 783.910156 L 208.878906 778.539062 C 221.203125 776.492188 229.53125 764.84375 227.488281 752.523438 C 225.445312 740.203125 213.796875 731.871094 201.476562 733.917969 " fill-opacity="1" fill-rule="nonzero"/></svg>