<svg xmlns="http://www.w3.org/2000/svg" xmlns:xlink="http://www.w3.org/1999/xlink" width="851" zoomAndPan="magnify" viewBox="0 0 638.25 236.249991" height="315" preserveAspectRatio="xMidYMid meet" version="1.0"><defs><g/><clipPath id="0477face74"><path d="M 66 127 L 191.6875 127 L 191.6875 204 L 66 204 Z M 66 127 " clip-rule="nonzero"/></clipPath><clipPath id="634f368305"><path d="M 13.003906 25.667969 L 178 25.667969 L 178 211.828125 L 13.003906 211.828125 Z M 13.003906 25.667969 " clip-rule="nonzero"/></clipPath></defs><g clip-path="url(#0477face74)"><path fill="#fe7936" d="M 157.773438 171.945312 C 163.367188 162.167969 166.5625 150.847656 166.5625 138.777344 C 166.5625 134.789062 166.210938 130.882812 165.542969 127.085938 C 162.835938 142.140625 154.832031 155.359375 143.523438 164.734375 C 136.980469 170.160156 127.242188 169.058594 122.125 162.277344 L 112.570312 149.617188 C 110.980469 147.507812 108.492188 146.269531 105.855469 146.269531 L 69.449219 146.269531 C 69.441406 146.269531 69.433594 146.273438 69.425781 146.273438 C 66.941406 146.289062 65.328125 148.910156 66.445312 151.136719 L 67.894531 154.019531 C 70.589844 159.386719 75.894531 162.953125 81.878906 163.425781 L 84.035156 163.59375 L 93.476562 164.339844 C 96.148438 164.550781 98.558594 166.027344 99.957031 168.316406 L 104.238281 175.316406 L 106.636719 179.238281 L 120.066406 201.207031 C 120.304688 201.597656 120.605469 201.941406 120.949219 202.226562 C 121.929688 203.050781 123.265625 203.394531 124.558594 203.074219 C 124.570312 203.070312 124.578125 203.070312 124.585938 203.066406 C 159.421875 194.46875 186.261719 165.570312 191.832031 129.640625 C 186.941406 148.074219 174.382812 163.386719 157.773438 171.945312 " fill-opacity="1" fill-rule="nonzero"/></g><g clip-path="url(#634f368305)"><path fill="#280274" d="M 97.390625 169.886719 C 96.496094 168.425781 94.945312 167.476562 93.242188 167.339844 L 81.640625 166.425781 C 74.652344 165.875 68.351562 161.640625 65.203125 155.375 L 63.832031 152.640625 C 62.855469 150.695312 62.835938 148.371094 63.910156 146.480469 C 65.023438 144.53125 67.027344 143.332031 69.25 143.265625 L 69.449219 143.261719 L 81.105469 143.261719 C 77.304688 137.261719 70.457031 133.886719 63.367188 134.550781 L 51.257812 135.679688 C 46.066406 136.167969 41.40625 132.589844 40.449219 127.46875 C 39.742188 123.671875 39.371094 119.753906 39.371094 115.753906 C 39.371094 95.460938 48.875 77.386719 63.675781 65.742188 C 49.015625 75.398438 37.601562 89.585938 31.445312 106.316406 C 36.992188 66.015625 71.5625 34.972656 113.390625 34.972656 C 139.28125 34.972656 162.390625 46.867188 177.558594 65.488281 C 161.441406 41.617188 134.160156 25.898438 103.207031 25.816406 C 53.652344 25.6875 13.105469 66.0625 13.03125 115.617188 C 13.003906 133.058594 17.949219 149.34375 26.523438 163.140625 C 26.703125 163.433594 26.882812 163.726562 27.066406 164.015625 L 39.070312 161.980469 C 44.433594 161.070312 48.847656 166.257812 47.023438 171.382812 C 46.972656 171.523438 46.941406 171.597656 46.941406 171.597656 C 54.667969 174.410156 53.367188 181.9375 53.367188 181.9375 C 60.191406 185.050781 57.378906 191.476562 57.378906 191.476562 C 59.792969 192.472656 60.640625 194.421875 60.859375 195.0625 C 60.96875 195.386719 61.09375 195.707031 61.21875 196.03125 L 65.886719 208.007812 C 66.6875 210.066406 69.152344 211.753906 71.363281 211.753906 C 74.152344 211.753906 76.085938 208.964844 75.105469 206.355469 L 72.917969 200.539062 L 70.003906 192.78125 C 69.800781 192.242188 70.171875 191.648438 70.761719 191.605469 C 71.144531 191.574219 71.5 191.828125 71.648438 192.183594 L 75.476562 201.402344 L 78.3125 208.230469 C 79.285156 210.578125 81.863281 211.925781 84.304688 211.210938 C 87.230469 210.359375 88.6875 207.082031 87.367188 204.335938 C 87.363281 204.335938 87.363281 204.332031 87.363281 204.328125 L 80.351562 189.84375 C 80.050781 189.222656 80.460938 188.492188 81.148438 188.425781 C 81.546875 188.386719 81.929688 188.59375 82.117188 188.945312 L 90.652344 204.847656 L 91.707031 206.816406 C 92.75 208.761719 95.035156 209.773438 97.128906 209.082031 C 98.757812 208.542969 99.84375 207.179688 100.132812 205.640625 C 100.304688 204.699219 100.1875 203.695312 99.707031 202.769531 L 93.03125 189.828125 C 92.738281 189.257812 92.953125 188.527344 93.546875 188.285156 C 94.070312 188.066406 94.65625 188.289062 94.914062 188.773438 L 102.460938 203.03125 C 103.070312 204.183594 103.980469 205.074219 105.042969 205.664062 C 106.8125 206.644531 109.003906 206.785156 110.960938 205.859375 C 111.339844 205.683594 111.683594 205.46875 112.007812 205.234375 C 114.683594 203.292969 115.523438 199.550781 113.730469 196.613281 L 97.390625 169.886719 " fill-opacity="1" fill-rule="nonzero"/></g><path fill="#fe7936" d="M 32.148438 175.292969 L 41.589844 173.726562 C 44.421875 173.253906 46.339844 170.578125 45.871094 167.742188 C 45.398438 164.910156 42.722656 162.992188 39.886719 163.460938 L 30.445312 165.03125 C 27.609375 165.5 25.695312 168.179688 26.164062 171.011719 C 26.632812 173.84375 29.3125 175.761719 32.148438 175.292969 " fill-opacity="1" fill-rule="nonzero"/><path fill="#fe7936" d="M 50.6875 177.980469 C 50.21875 175.148438 47.539062 173.230469 44.707031 173.703125 L 31.816406 176.164062 C 28.980469 176.636719 27.066406 179.3125 27.535156 182.148438 C 28.007812 184.980469 30.683594 186.898438 33.519531 186.425781 L 46.40625 183.964844 C 49.242188 183.492188 51.15625 180.8125 50.6875 177.980469 " fill-opacity="1" fill-rule="nonzero"/><path fill="#fe7936" d="M 55.039062 188.6875 C 54.566406 185.851562 51.890625 183.9375 49.054688 184.40625 L 39.613281 185.972656 C 36.777344 186.445312 34.863281 189.125 35.332031 191.957031 C 35.800781 194.789062 38.480469 196.707031 41.3125 196.234375 L 50.757812 194.667969 C 53.589844 194.199219 55.507812 191.523438 55.039062 188.6875 " fill-opacity="1" fill-rule="nonzero"/><path fill="#fe7936" d="M 55.613281 194.445312 L 47.859375 195.679688 C 45.023438 196.148438 43.109375 198.828125 43.578125 201.664062 C 44.046875 204.496094 46.726562 206.410156 49.5625 205.941406 L 57.316406 204.707031 C 60.148438 204.238281 62.066406 201.558594 61.59375 198.726562 C 61.125 195.890625 58.445312 193.976562 55.613281 194.445312 " fill-opacity="1" fill-rule="nonzero"/><g fill="#280274" fill-opacity="1"><g transform="translate(193.846612, 114.342421)"><g><path d="M 5.15625 0.3125 C 4.28125 0.3125 3.609375 0.0703125 3.140625 -0.40625 C 2.679688 -0.894531 2.453125 -1.578125 2.453125 -2.453125 L 2.453125 -22 C 2.453125 -22.882812 2.679688 -23.5625 3.140625 -24.03125 C 3.609375 -24.507812 4.28125 -24.75 5.15625 -24.75 C 6.019531 -24.75 6.679688 -24.507812 7.140625 -24.03125 C 7.597656 -23.5625 7.828125 -22.882812 7.828125 -22 L 7.828125 -13.796875 L 7.90625 -13.796875 L 17.125 -23.421875 C 17.507812 -23.835938 17.914062 -24.15625 18.34375 -24.375 C 18.769531 -24.59375 19.265625 -24.703125 19.828125 -24.703125 C 20.628906 -24.703125 21.207031 -24.492188 21.5625 -24.078125 C 21.925781 -23.671875 22.082031 -23.1875 22.03125 -22.625 C 21.988281 -22.070312 21.738281 -21.554688 21.28125 -21.078125 L 12.03125 -11.609375 L 12.0625 -13.9375 L 21.765625 -3.5625 C 22.296875 -2.988281 22.566406 -2.398438 22.578125 -1.796875 C 22.585938 -1.203125 22.390625 -0.703125 21.984375 -0.296875 C 21.585938 0.109375 20.992188 0.3125 20.203125 0.3125 C 19.535156 0.3125 19 0.175781 18.59375 -0.09375 C 18.1875 -0.375 17.742188 -0.78125 17.265625 -1.3125 L 7.90625 -11.15625 L 7.828125 -11.15625 L 7.828125 -2.453125 C 7.828125 -1.578125 7.601562 -0.894531 7.15625 -0.40625 C 6.707031 0.0703125 6.039062 0.3125 5.15625 0.3125 Z M 5.15625 0.3125 "/></g></g></g><g fill="#280274" fill-opacity="1"><g transform="translate(221.153288, 114.342421)"><g><path d="M 3.15625 0.3125 C 2.507812 0.3125 1.984375 0.160156 1.578125 -0.140625 C 1.171875 -0.441406 0.914062 -0.84375 0.8125 -1.34375 C 0.707031 -1.851562 0.804688 -2.421875 1.109375 -3.046875 L 9.984375 -22.484375 C 10.347656 -23.273438 10.785156 -23.847656 11.296875 -24.203125 C 11.804688 -24.566406 12.394531 -24.75 13.0625 -24.75 C 13.738281 -24.75 14.328125 -24.566406 14.828125 -24.203125 C 15.335938 -23.847656 15.765625 -23.273438 16.109375 -22.484375 L 25.0625 -3.046875 C 25.351562 -2.421875 25.457031 -1.847656 25.375 -1.328125 C 25.300781 -0.804688 25.066406 -0.398438 24.671875 -0.109375 C 24.285156 0.171875 23.78125 0.3125 23.15625 0.3125 C 22.363281 0.3125 21.753906 0.128906 21.328125 -0.234375 C 20.898438 -0.609375 20.523438 -1.1875 20.203125 -1.96875 L 18.125 -6.796875 L 20.28125 -5.296875 L 5.828125 -5.296875 L 7.96875 -6.796875 L 5.921875 -1.96875 C 5.578125 -1.164062 5.210938 -0.582031 4.828125 -0.21875 C 4.453125 0.132812 3.894531 0.3125 3.15625 0.3125 Z M 13 -18.71875 L 8.5625 -8.140625 L 7.625 -9.5 L 18.46875 -9.5 L 17.53125 -8.140625 L 13.0625 -18.71875 Z M 13 -18.71875 "/></g></g></g><g fill="#280274" fill-opacity="1"><g transform="translate(250.712385, 114.342421)"><g><path d="M 10.984375 0.3125 C 10.109375 0.3125 9.4375 0.0703125 8.96875 -0.40625 C 8.507812 -0.894531 8.28125 -1.578125 8.28125 -2.453125 L 8.28125 -20 L 2.15625 -20 C 1.4375 -20 0.878906 -20.191406 0.484375 -20.578125 C 0.0859375 -20.972656 -0.109375 -21.519531 -0.109375 -22.21875 C -0.109375 -22.925781 0.0859375 -23.472656 0.484375 -23.859375 C 0.878906 -24.242188 1.4375 -24.4375 2.15625 -24.4375 L 19.78125 -24.4375 C 20.5 -24.4375 21.054688 -24.242188 21.453125 -23.859375 C 21.847656 -23.472656 22.046875 -22.925781 22.046875 -22.21875 C 22.046875 -21.519531 21.847656 -20.972656 21.453125 -20.578125 C 21.054688 -20.191406 20.5 -20 19.78125 -20 L 13.65625 -20 L 13.65625 -2.453125 C 13.65625 -1.578125 13.425781 -0.894531 12.96875 -0.40625 C 12.519531 0.0703125 11.859375 0.3125 10.984375 0.3125 Z M 10.984375 0.3125 "/></g></g></g><g fill="#280274" fill-opacity="1"><g transform="translate(276.078513, 114.342421)"><g><path d="M 12.921875 0.375 C 11.191406 0.375 9.660156 0.148438 8.328125 -0.296875 C 7.003906 -0.742188 5.890625 -1.40625 4.984375 -2.28125 C 4.085938 -3.164062 3.410156 -4.269531 2.953125 -5.59375 C 2.503906 -6.925781 2.28125 -8.46875 2.28125 -10.21875 L 2.28125 -22 C 2.28125 -22.90625 2.507812 -23.585938 2.96875 -24.046875 C 3.4375 -24.515625 4.109375 -24.75 4.984375 -24.75 C 5.835938 -24.75 6.492188 -24.515625 6.953125 -24.046875 C 7.421875 -23.585938 7.65625 -22.90625 7.65625 -22 L 7.65625 -10.1875 C 7.65625 -8.195312 8.101562 -6.695312 9 -5.6875 C 9.90625 -4.6875 11.210938 -4.1875 12.921875 -4.1875 C 14.628906 -4.1875 15.925781 -4.6875 16.8125 -5.6875 C 17.707031 -6.695312 18.15625 -8.195312 18.15625 -10.1875 L 18.15625 -22 C 18.15625 -22.90625 18.382812 -23.585938 18.84375 -24.046875 C 19.3125 -24.515625 19.972656 -24.75 20.828125 -24.75 C 21.679688 -24.75 22.332031 -24.515625 22.78125 -24.046875 C 23.238281 -23.585938 23.46875 -22.90625 23.46875 -22 L 23.46875 -10.21875 C 23.46875 -7.882812 23.066406 -5.925781 22.265625 -4.34375 C 21.472656 -2.757812 20.296875 -1.578125 18.734375 -0.796875 C 17.171875 -0.015625 15.234375 0.375 12.921875 0.375 Z M 12.921875 0.375 "/></g></g></g><g fill="#280274" fill-opacity="1"><g transform="translate(305.291079, 114.342421)"><g><path d="M 5.15625 0.3125 C 4.28125 0.3125 3.609375 0.0703125 3.140625 -0.40625 C 2.679688 -0.894531 2.453125 -1.578125 2.453125 -2.453125 L 2.453125 -21.6875 C 2.453125 -22.59375 2.6875 -23.273438 3.15625 -23.734375 C 3.632812 -24.203125 4.316406 -24.4375 5.203125 -24.4375 L 13.625 -24.4375 C 16.34375 -24.4375 18.441406 -23.75 19.921875 -22.375 C 21.398438 -21 22.140625 -19.085938 22.140625 -16.640625 C 22.140625 -14.191406 21.398438 -12.269531 19.921875 -10.875 C 18.441406 -9.488281 16.34375 -8.796875 13.625 -8.796875 L 7.828125 -8.796875 L 7.828125 -2.453125 C 7.828125 -1.578125 7.601562 -0.894531 7.15625 -0.40625 C 6.707031 0.0703125 6.039062 0.3125 5.15625 0.3125 Z M 7.828125 -12.96875 L 12.71875 -12.96875 C 14.101562 -12.96875 15.160156 -13.273438 15.890625 -13.890625 C 16.617188 -14.515625 16.984375 -15.429688 16.984375 -16.640625 C 16.984375 -17.835938 16.617188 -18.734375 15.890625 -19.328125 C 15.160156 -19.929688 14.101562 -20.234375 12.71875 -20.234375 L 7.828125 -20.234375 Z M 7.828125 -12.96875 "/></g></g></g><g fill="#280274" fill-opacity="1"><g transform="translate(331.766094, 114.342421)"><g><path d="M 3.15625 0.3125 C 2.507812 0.3125 1.984375 0.160156 1.578125 -0.140625 C 1.171875 -0.441406 0.914062 -0.84375 0.8125 -1.34375 C 0.707031 -1.851562 0.804688 -2.421875 1.109375 -3.046875 L 9.984375 -22.484375 C 10.347656 -23.273438 10.785156 -23.847656 11.296875 -24.203125 C 11.804688 -24.566406 12.394531 -24.75 13.0625 -24.75 C 13.738281 -24.75 14.328125 -24.566406 14.828125 -24.203125 C 15.335938 -23.847656 15.765625 -23.273438 16.109375 -22.484375 L 25.0625 -3.046875 C 25.351562 -2.421875 25.457031 -1.847656 25.375 -1.328125 C 25.300781 -0.804688 25.066406 -0.398438 24.671875 -0.109375 C 24.285156 0.171875 23.78125 0.3125 23.15625 0.3125 C 22.363281 0.3125 21.753906 0.128906 21.328125 -0.234375 C 20.898438 -0.609375 20.523438 -1.1875 20.203125 -1.96875 L 18.125 -6.796875 L 20.28125 -5.296875 L 5.828125 -5.296875 L 7.96875 -6.796875 L 5.921875 -1.96875 C 5.578125 -1.164062 5.210938 -0.582031 4.828125 -0.21875 C 4.453125 0.132812 3.894531 0.3125 3.15625 0.3125 Z M 13 -18.71875 L 8.5625 -8.140625 L 7.625 -9.5 L 18.46875 -9.5 L 17.53125 -8.140625 L 13.0625 -18.71875 Z M 13 -18.71875 "/></g></g></g><g fill="#280274" fill-opacity="1"><g transform="translate(361.325198, 114.342421)"><g><path d="M 5.15625 0.3125 C 4.28125 0.3125 3.609375 0.0703125 3.140625 -0.40625 C 2.679688 -0.894531 2.453125 -1.578125 2.453125 -2.453125 L 2.453125 -21.6875 C 2.453125 -22.59375 2.6875 -23.273438 3.15625 -23.734375 C 3.632812 -24.203125 4.316406 -24.4375 5.203125 -24.4375 L 13.625 -24.4375 C 16.34375 -24.4375 18.441406 -23.773438 19.921875 -22.453125 C 21.398438 -21.140625 22.140625 -19.304688 22.140625 -16.953125 C 22.140625 -15.421875 21.804688 -14.097656 21.140625 -12.984375 C 20.472656 -11.878906 19.507812 -11.023438 18.25 -10.421875 C 16.988281 -9.828125 15.445312 -9.53125 13.625 -9.53125 L 13.890625 -10.125 L 15.3125 -10.125 C 16.289062 -10.125 17.140625 -9.882812 17.859375 -9.40625 C 18.585938 -8.9375 19.21875 -8.21875 19.75 -7.25 L 21.90625 -3.25 C 22.226562 -2.675781 22.375 -2.113281 22.34375 -1.5625 C 22.320312 -1.007812 22.113281 -0.554688 21.71875 -0.203125 C 21.332031 0.140625 20.757812 0.3125 20 0.3125 C 19.238281 0.3125 18.617188 0.148438 18.140625 -0.171875 C 17.671875 -0.492188 17.25 -0.988281 16.875 -1.65625 L 13.546875 -7.796875 C 13.203125 -8.441406 12.78125 -8.878906 12.28125 -9.109375 C 11.789062 -9.347656 11.1875 -9.46875 10.46875 -9.46875 L 7.828125 -9.46875 L 7.828125 -2.453125 C 7.828125 -1.578125 7.601562 -0.894531 7.15625 -0.40625 C 6.707031 0.0703125 6.039062 0.3125 5.15625 0.3125 Z M 7.828125 -13.34375 L 12.65625 -13.34375 C 14.082031 -13.34375 15.160156 -13.628906 15.890625 -14.203125 C 16.617188 -14.785156 16.984375 -15.65625 16.984375 -16.8125 C 16.984375 -17.9375 16.617188 -18.785156 15.890625 -19.359375 C 15.160156 -19.941406 14.082031 -20.234375 12.65625 -20.234375 L 7.828125 -20.234375 Z M 7.828125 -13.34375 "/></g></g></g><g fill="#280274" fill-opacity="1"><g transform="translate(388.909094, 114.342421)"><g><path d="M 3.15625 0.3125 C 2.507812 0.3125 1.984375 0.160156 1.578125 -0.140625 C 1.171875 -0.441406 0.914062 -0.84375 0.8125 -1.34375 C 0.707031 -1.851562 0.804688 -2.421875 1.109375 -3.046875 L 9.984375 -22.484375 C 10.347656 -23.273438 10.785156 -23.847656 11.296875 -24.203125 C 11.804688 -24.566406 12.394531 -24.75 13.0625 -24.75 C 13.738281 -24.75 14.328125 -24.566406 14.828125 -24.203125 C 15.335938 -23.847656 15.765625 -23.273438 16.109375 -22.484375 L 25.0625 -3.046875 C 25.351562 -2.421875 25.457031 -1.847656 25.375 -1.328125 C 25.300781 -0.804688 25.066406 -0.398438 24.671875 -0.109375 C 24.285156 0.171875 23.78125 0.3125 23.15625 0.3125 C 22.363281 0.3125 21.753906 0.128906 21.328125 -0.234375 C 20.898438 -0.609375 20.523438 -1.1875 20.203125 -1.96875 L 18.125 -6.796875 L 20.28125 -5.296875 L 5.828125 -5.296875 L 7.96875 -6.796875 L 5.921875 -1.96875 C 5.578125 -1.164062 5.210938 -0.582031 4.828125 -0.21875 C 4.453125 0.132812 3.894531 0.3125 3.15625 0.3125 Z M 13 -18.71875 L 8.5625 -8.140625 L 7.625 -9.5 L 18.46875 -9.5 L 17.53125 -8.140625 L 13.0625 -18.71875 Z M 13 -18.71875 "/></g></g></g><g fill="#280274" fill-opacity="1"><g transform="translate(418.468198, 114.342421)"><g><path d="M 4.953125 0.3125 C 4.148438 0.3125 3.53125 0.0859375 3.09375 -0.359375 C 2.664062 -0.816406 2.453125 -1.457031 2.453125 -2.28125 L 2.453125 -22.046875 C 2.453125 -22.921875 2.664062 -23.585938 3.09375 -24.046875 C 3.53125 -24.515625 4.101562 -24.75 4.8125 -24.75 C 5.4375 -24.75 5.914062 -24.625 6.25 -24.375 C 6.59375 -24.132812 6.984375 -23.738281 7.421875 -23.1875 L 19.578125 -7.6875 L 18.640625 -7.6875 L 18.640625 -22.1875 C 18.640625 -22.988281 18.851562 -23.613281 19.28125 -24.0625 C 19.707031 -24.519531 20.328125 -24.75 21.140625 -24.75 C 21.953125 -24.75 22.570312 -24.519531 23 -24.0625 C 23.425781 -23.613281 23.640625 -22.988281 23.640625 -22.1875 L 23.640625 -2.1875 C 23.640625 -1.425781 23.441406 -0.816406 23.046875 -0.359375 C 22.648438 0.0859375 22.117188 0.3125 21.453125 0.3125 C 20.804688 0.3125 20.289062 0.1875 19.90625 -0.0625 C 19.53125 -0.320312 19.125 -0.726562 18.6875 -1.28125 L 6.546875 -16.78125 L 7.453125 -16.78125 L 7.453125 -2.28125 C 7.453125 -1.457031 7.242188 -0.816406 6.828125 -0.359375 C 6.410156 0.0859375 5.785156 0.3125 4.953125 0.3125 Z M 4.953125 0.3125 "/></g></g></g><g fill="#280274" fill-opacity="1"><g transform="translate(448.027302, 114.342421)"><g/></g></g><g fill="#280274" fill-opacity="1"><g transform="translate(461.161057, 114.342421)"><g><path d="M 14.3125 0.375 C 11.675781 0.375 9.421875 -0.140625 7.546875 -1.171875 C 5.679688 -2.210938 4.242188 -3.675781 3.234375 -5.5625 C 2.234375 -7.445312 1.734375 -9.671875 1.734375 -12.234375 C 1.734375 -14.148438 2.015625 -15.875 2.578125 -17.40625 C 3.148438 -18.945312 3.976562 -20.265625 5.0625 -21.359375 C 6.144531 -22.460938 7.46875 -23.3125 9.03125 -23.90625 C 10.59375 -24.507812 12.351562 -24.8125 14.3125 -24.8125 C 15.46875 -24.8125 16.640625 -24.664062 17.828125 -24.375 C 19.015625 -24.09375 20.050781 -23.6875 20.9375 -23.15625 C 21.507812 -22.832031 21.898438 -22.425781 22.109375 -21.9375 C 22.316406 -21.445312 22.378906 -20.957031 22.296875 -20.46875 C 22.222656 -19.988281 22.03125 -19.578125 21.71875 -19.234375 C 21.40625 -18.890625 21.015625 -18.671875 20.546875 -18.578125 C 20.085938 -18.484375 19.566406 -18.585938 18.984375 -18.890625 C 18.296875 -19.304688 17.570312 -19.601562 16.8125 -19.78125 C 16.050781 -19.96875 15.273438 -20.0625 14.484375 -20.0625 C 12.941406 -20.0625 11.644531 -19.753906 10.59375 -19.140625 C 9.539062 -18.535156 8.75 -17.65625 8.21875 -16.5 C 7.6875 -15.34375 7.421875 -13.921875 7.421875 -12.234375 C 7.421875 -10.566406 7.6875 -9.144531 8.21875 -7.96875 C 8.75 -6.789062 9.539062 -5.894531 10.59375 -5.28125 C 11.644531 -4.664062 12.941406 -4.359375 14.484375 -4.359375 C 15.222656 -4.359375 15.976562 -4.453125 16.75 -4.640625 C 17.53125 -4.828125 18.273438 -5.117188 18.984375 -5.515625 C 19.585938 -5.804688 20.125 -5.910156 20.59375 -5.828125 C 21.070312 -5.753906 21.46875 -5.550781 21.78125 -5.21875 C 22.09375 -4.882812 22.285156 -4.484375 22.359375 -4.015625 C 22.441406 -3.554688 22.390625 -3.09375 22.203125 -2.625 C 22.023438 -2.164062 21.679688 -1.773438 21.171875 -1.453125 C 20.316406 -0.878906 19.265625 -0.429688 18.015625 -0.109375 C 16.773438 0.210938 15.539062 0.375 14.3125 0.375 Z M 14.3125 0.375 "/></g></g></g><g fill="#280274" fill-opacity="1"><g transform="translate(488.329119, 114.342421)"><g><path d="M 5.265625 0 C 4.367188 0 3.675781 -0.238281 3.1875 -0.71875 C 2.695312 -1.207031 2.453125 -1.90625 2.453125 -2.8125 L 2.453125 -21.625 C 2.453125 -22.53125 2.695312 -23.222656 3.1875 -23.703125 C 3.675781 -24.191406 4.367188 -24.4375 5.265625 -24.4375 L 17.359375 -24.4375 C 18.054688 -24.4375 18.582031 -24.253906 18.9375 -23.890625 C 19.300781 -23.535156 19.484375 -23.023438 19.484375 -22.359375 C 19.484375 -21.660156 19.300781 -21.128906 18.9375 -20.765625 C 18.582031 -20.410156 18.054688 -20.234375 17.359375 -20.234375 L 7.59375 -20.234375 L 7.59375 -14.515625 L 16.5625 -14.515625 C 17.28125 -14.515625 17.816406 -14.335938 18.171875 -13.984375 C 18.535156 -13.628906 18.71875 -13.101562 18.71875 -12.40625 C 18.71875 -11.71875 18.535156 -11.191406 18.171875 -10.828125 C 17.816406 -10.472656 17.28125 -10.296875 16.5625 -10.296875 L 7.59375 -10.296875 L 7.59375 -4.1875 L 17.359375 -4.1875 C 18.054688 -4.1875 18.582031 -4.007812 18.9375 -3.65625 C 19.300781 -3.300781 19.484375 -2.785156 19.484375 -2.109375 C 19.484375 -1.421875 19.300781 -0.894531 18.9375 -0.53125 C 18.582031 -0.175781 18.054688 0 17.359375 0 Z M 5.265625 0 "/></g></g></g><g fill="#280274" fill-opacity="1"><g transform="translate(512.75962, 114.342421)"><g><path d="M 4.953125 0.3125 C 4.148438 0.3125 3.53125 0.0859375 3.09375 -0.359375 C 2.664062 -0.816406 2.453125 -1.457031 2.453125 -2.28125 L 2.453125 -22.046875 C 2.453125 -22.921875 2.664062 -23.585938 3.09375 -24.046875 C 3.53125 -24.515625 4.101562 -24.75 4.8125 -24.75 C 5.4375 -24.75 5.914062 -24.625 6.25 -24.375 C 6.59375 -24.132812 6.984375 -23.738281 7.421875 -23.1875 L 19.578125 -7.6875 L 18.640625 -7.6875 L 18.640625 -22.1875 C 18.640625 -22.988281 18.851562 -23.613281 19.28125 -24.0625 C 19.707031 -24.519531 20.328125 -24.75 21.140625 -24.75 C 21.953125 -24.75 22.570312 -24.519531 23 -24.0625 C 23.425781 -23.613281 23.640625 -22.988281 23.640625 -22.1875 L 23.640625 -2.1875 C 23.640625 -1.425781 23.441406 -0.816406 23.046875 -0.359375 C 22.648438 0.0859375 22.117188 0.3125 21.453125 0.3125 C 20.804688 0.3125 20.289062 0.1875 19.90625 -0.0625 C 19.53125 -0.320312 19.125 -0.726562 18.6875 -1.28125 L 6.546875 -16.78125 L 7.453125 -16.78125 L 7.453125 -2.28125 C 7.453125 -1.457031 7.242188 -0.816406 6.828125 -0.359375 C 6.410156 0.0859375 5.785156 0.3125 4.953125 0.3125 Z M 4.953125 0.3125 "/></g></g></g><g fill="#280274" fill-opacity="1"><g transform="translate(542.318724, 114.342421)"><g><path d="M 10.984375 0.3125 C 10.109375 0.3125 9.4375 0.0703125 8.96875 -0.40625 C 8.507812 -0.894531 8.28125 -1.578125 8.28125 -2.453125 L 8.28125 -20 L 2.15625 -20 C 1.4375 -20 0.878906 -20.191406 0.484375 -20.578125 C 0.0859375 -20.972656 -0.109375 -21.519531 -0.109375 -22.21875 C -0.109375 -22.925781 0.0859375 -23.472656 0.484375 -23.859375 C 0.878906 -24.242188 1.4375 -24.4375 2.15625 -24.4375 L 19.78125 -24.4375 C 20.5 -24.4375 21.054688 -24.242188 21.453125 -23.859375 C 21.847656 -23.472656 22.046875 -22.925781 22.046875 -22.21875 C 22.046875 -21.519531 21.847656 -20.972656 21.453125 -20.578125 C 21.054688 -20.191406 20.5 -20 19.78125 -20 L 13.65625 -20 L 13.65625 -2.453125 C 13.65625 -1.578125 13.425781 -0.894531 12.96875 -0.40625 C 12.519531 0.0703125 11.859375 0.3125 10.984375 0.3125 Z M 10.984375 0.3125 "/></g></g></g><g fill="#280274" fill-opacity="1"><g transform="translate(567.684839, 114.342421)"><g><path d="M 5.265625 0 C 4.367188 0 3.675781 -0.238281 3.1875 -0.71875 C 2.695312 -1.207031 2.453125 -1.90625 2.453125 -2.8125 L 2.453125 -21.625 C 2.453125 -22.53125 2.695312 -23.222656 3.1875 -23.703125 C 3.675781 -24.191406 4.367188 -24.4375 5.265625 -24.4375 L 17.359375 -24.4375 C 18.054688 -24.4375 18.582031 -24.253906 18.9375 -23.890625 C 19.300781 -23.535156 19.484375 -23.023438 19.484375 -22.359375 C 19.484375 -21.660156 19.300781 -21.128906 18.9375 -20.765625 C 18.582031 -20.410156 18.054688 -20.234375 17.359375 -20.234375 L 7.59375 -20.234375 L 7.59375 -14.515625 L 16.5625 -14.515625 C 17.28125 -14.515625 17.816406 -14.335938 18.171875 -13.984375 C 18.535156 -13.628906 18.71875 -13.101562 18.71875 -12.40625 C 18.71875 -11.71875 18.535156 -11.191406 18.171875 -10.828125 C 17.816406 -10.472656 17.28125 -10.296875 16.5625 -10.296875 L 7.59375 -10.296875 L 7.59375 -4.1875 L 17.359375 -4.1875 C 18.054688 -4.1875 18.582031 -4.007812 18.9375 -3.65625 C 19.300781 -3.300781 19.484375 -2.785156 19.484375 -2.109375 C 19.484375 -1.421875 19.300781 -0.894531 18.9375 -0.53125 C 18.582031 -0.175781 18.054688 0 17.359375 0 Z M 5.265625 0 "/></g></g></g><g fill="#280274" fill-opacity="1"><g transform="translate(592.11534, 114.342421)"><g><path d="M 5.15625 0.3125 C 4.28125 0.3125 3.609375 0.0703125 3.140625 -0.40625 C 2.679688 -0.894531 2.453125 -1.578125 2.453125 -2.453125 L 2.453125 -21.6875 C 2.453125 -22.59375 2.6875 -23.273438 3.15625 -23.734375 C 3.632812 -24.203125 4.316406 -24.4375 5.203125 -24.4375 L 13.625 -24.4375 C 16.34375 -24.4375 18.441406 -23.773438 19.921875 -22.453125 C 21.398438 -21.140625 22.140625 -19.304688 22.140625 -16.953125 C 22.140625 -15.421875 21.804688 -14.097656 21.140625 -12.984375 C 20.472656 -11.878906 19.507812 -11.023438 18.25 -10.421875 C 16.988281 -9.828125 15.445312 -9.53125 13.625 -9.53125 L 13.890625 -10.125 L 15.3125 -10.125 C 16.289062 -10.125 17.140625 -9.882812 17.859375 -9.40625 C 18.585938 -8.9375 19.21875 -8.21875 19.75 -7.25 L 21.90625 -3.25 C 22.226562 -2.675781 22.375 -2.113281 22.34375 -1.5625 C 22.320312 -1.007812 22.113281 -0.554688 21.71875 -0.203125 C 21.332031 0.140625 20.757812 0.3125 20 0.3125 C 19.238281 0.3125 18.617188 0.148438 18.140625 -0.171875 C 17.671875 -0.492188 17.25 -0.988281 16.875 -1.65625 L 13.546875 -7.796875 C 13.203125 -8.441406 12.78125 -8.878906 12.28125 -9.109375 C 11.789062 -9.347656 11.1875 -9.46875 10.46875 -9.46875 L 7.828125 -9.46875 L 7.828125 -2.453125 C 7.828125 -1.578125 7.601562 -0.894531 7.15625 -0.40625 C 6.707031 0.0703125 6.039062 0.3125 5.15625 0.3125 Z M 7.828125 -13.34375 L 12.65625 -13.34375 C 14.082031 -13.34375 15.160156 -13.628906 15.890625 -14.203125 C 16.617188 -14.785156 16.984375 -15.65625 16.984375 -16.8125 C 16.984375 -17.9375 16.617188 -18.785156 15.890625 -19.359375 C 15.160156 -19.941406 14.082031 -20.234375 12.65625 -20.234375 L 7.828125 -20.234375 Z M 7.828125 -13.34375 "/></g></g></g><g fill="#545454" fill-opacity="1"><g transform="translate(291.5901, 137.293933)"><g><path d="M 1.90625 0.09375 C 1.664062 0.09375 1.476562 0.03125 1.34375 -0.09375 C 1.21875 -0.226562 1.15625 -0.414062 1.15625 -0.65625 L 1.15625 -9.34375 C 1.15625 -9.59375 1.21875 -9.78125 1.34375 -9.90625 C 1.476562 -10.03125 1.664062 -10.09375 1.90625 -10.09375 C 2.132812 -10.09375 2.3125 -10.03125 2.4375 -9.90625 C 2.570312 -9.78125 2.640625 -9.59375 2.640625 -9.34375 L 2.640625 -0.65625 C 2.640625 -0.414062 2.578125 -0.226562 2.453125 -0.09375 C 2.328125 0.03125 2.144531 0.09375 1.90625 0.09375 Z M 1.90625 0.09375 "/></g></g></g><g fill="#545454" fill-opacity="1"><g transform="translate(306.749939, 137.293933)"><g><path d="M 1.859375 0.09375 C 1.640625 0.09375 1.46875 0.0351562 1.34375 -0.078125 C 1.21875 -0.203125 1.15625 -0.378906 1.15625 -0.609375 L 1.15625 -9.359375 C 1.15625 -9.597656 1.210938 -9.78125 1.328125 -9.90625 C 1.453125 -10.03125 1.613281 -10.09375 1.8125 -10.09375 C 1.988281 -10.09375 2.117188 -10.0625 2.203125 -10 C 2.296875 -9.945312 2.40625 -9.835938 2.53125 -9.671875 L 8.375 -1.96875 L 8.015625 -1.96875 L 8.015625 -9.40625 C 8.015625 -9.625 8.070312 -9.789062 8.1875 -9.90625 C 8.3125 -10.03125 8.484375 -10.09375 8.703125 -10.09375 C 8.921875 -10.09375 9.085938 -10.03125 9.203125 -9.90625 C 9.316406 -9.789062 9.375 -9.625 9.375 -9.40625 L 9.375 -0.59375 C 9.375 -0.375 9.316406 -0.203125 9.203125 -0.078125 C 9.097656 0.0351562 8.957031 0.09375 8.78125 0.09375 C 8.613281 0.09375 8.472656 0.0625 8.359375 0 C 8.253906 -0.0625 8.140625 -0.175781 8.015625 -0.34375 L 2.203125 -8.03125 L 2.53125 -8.03125 L 2.53125 -0.609375 C 2.53125 -0.378906 2.472656 -0.203125 2.359375 -0.078125 C 2.242188 0.0351562 2.078125 0.09375 1.859375 0.09375 Z M 1.859375 0.09375 "/></g></g></g><g fill="#545454" fill-opacity="1"><g transform="translate(328.650958, 137.293933)"><g><path d="M 1.953125 0 C 1.703125 0 1.503906 -0.0664062 1.359375 -0.203125 C 1.222656 -0.335938 1.15625 -0.535156 1.15625 -0.796875 L 1.15625 -9.203125 C 1.15625 -9.460938 1.222656 -9.660156 1.359375 -9.796875 C 1.503906 -9.929688 1.703125 -10 1.953125 -10 L 4.703125 -10 C 6.347656 -10 7.613281 -9.570312 8.5 -8.71875 C 9.394531 -7.863281 9.84375 -6.628906 9.84375 -5.015625 C 9.84375 -4.203125 9.726562 -3.484375 9.5 -2.859375 C 9.28125 -2.234375 8.945312 -1.710938 8.5 -1.296875 C 8.0625 -0.878906 7.523438 -0.554688 6.890625 -0.328125 C 6.253906 -0.109375 5.523438 0 4.703125 0 Z M 2.640625 -1.234375 L 4.609375 -1.234375 C 5.234375 -1.234375 5.773438 -1.3125 6.234375 -1.46875 C 6.691406 -1.625 7.078125 -1.859375 7.390625 -2.171875 C 7.703125 -2.484375 7.929688 -2.875 8.078125 -3.34375 C 8.234375 -3.820312 8.3125 -4.378906 8.3125 -5.015625 C 8.3125 -6.265625 8 -7.203125 7.375 -7.828125 C 6.757812 -8.453125 5.835938 -8.765625 4.609375 -8.765625 L 2.640625 -8.765625 Z M 2.640625 -1.234375 "/></g></g></g><g fill="#545454" fill-opacity="1"><g transform="translate(350.665513, 137.293933)"><g><path d="M 1.953125 0 C 1.703125 0 1.503906 -0.0664062 1.359375 -0.203125 C 1.222656 -0.335938 1.15625 -0.535156 1.15625 -0.796875 L 1.15625 -9.203125 C 1.15625 -9.460938 1.222656 -9.660156 1.359375 -9.796875 C 1.503906 -9.929688 1.703125 -10 1.953125 -10 L 7.140625 -10 C 7.335938 -10 7.488281 -9.945312 7.59375 -9.84375 C 7.695312 -9.75 7.75 -9.609375 7.75 -9.421875 C 7.75 -9.222656 7.695312 -9.070312 7.59375 -8.96875 C 7.488281 -8.863281 7.335938 -8.8125 7.140625 -8.8125 L 2.578125 -8.8125 L 2.578125 -5.671875 L 6.828125 -5.671875 C 7.035156 -5.671875 7.1875 -5.617188 7.28125 -5.515625 C 7.382812 -5.410156 7.4375 -5.265625 7.4375 -5.078125 C 7.4375 -4.878906 7.382812 -4.726562 7.28125 -4.625 C 7.1875 -4.53125 7.035156 -4.484375 6.828125 -4.484375 L 2.578125 -4.484375 L 2.578125 -1.1875 L 7.140625 -1.1875 C 7.335938 -1.1875 7.488281 -1.132812 7.59375 -1.03125 C 7.695312 -0.925781 7.75 -0.78125 7.75 -0.59375 C 7.75 -0.394531 7.695312 -0.242188 7.59375 -0.140625 C 7.488281 -0.046875 7.335938 0 7.140625 0 Z M 1.953125 0 "/></g></g></g><g fill="#545454" fill-opacity="1"><g transform="translate(370.38097, 137.293933)"><g><path d="M 1.25 0.09375 C 1.0625 0.09375 0.90625 0.046875 0.78125 -0.046875 C 0.65625 -0.148438 0.582031 -0.28125 0.5625 -0.4375 C 0.550781 -0.59375 0.601562 -0.75 0.71875 -0.90625 L 4.078125 -5.40625 L 4.078125 -4.8125 L 0.90625 -9.0625 C 0.78125 -9.238281 0.722656 -9.40625 0.734375 -9.5625 C 0.753906 -9.71875 0.828125 -9.84375 0.953125 -9.9375 C 1.078125 -10.039062 1.226562 -10.09375 1.40625 -10.09375 C 1.550781 -10.09375 1.679688 -10.054688 1.796875 -9.984375 C 1.921875 -9.921875 2.046875 -9.804688 2.171875 -9.640625 L 4.921875 -5.859375 L 4.46875 -5.859375 L 7.1875 -9.640625 C 7.3125 -9.804688 7.429688 -9.921875 7.546875 -9.984375 C 7.671875 -10.054688 7.8125 -10.09375 7.96875 -10.09375 C 8.15625 -10.09375 8.3125 -10.039062 8.4375 -9.9375 C 8.5625 -9.84375 8.628906 -9.71875 8.640625 -9.5625 C 8.660156 -9.40625 8.601562 -9.238281 8.46875 -9.0625 L 5.3125 -4.8125 L 5.3125 -5.40625 L 8.640625 -0.90625 C 8.765625 -0.75 8.816406 -0.59375 8.796875 -0.4375 C 8.785156 -0.28125 8.71875 -0.148438 8.59375 -0.046875 C 8.46875 0.046875 8.304688 0.09375 8.109375 0.09375 C 7.972656 0.09375 7.84375 0.0546875 7.71875 -0.015625 C 7.59375 -0.0859375 7.460938 -0.207031 7.328125 -0.375 L 4.40625 -4.375 L 4.953125 -4.375 L 2.046875 -0.375 C 1.921875 -0.207031 1.789062 -0.0859375 1.65625 -0.015625 C 1.53125 0.0546875 1.394531 0.09375 1.25 0.09375 Z M 1.25 0.09375 "/></g></g></g><g fill="#545454" fill-opacity="1"><g transform="translate(391.104052, 137.293933)"><g/></g></g><g fill="#545454" fill-opacity="1"><g transform="translate(406.207126, 137.293933)"><g><path d="M 4.5 0.125 C 4.0625 0.125 3.632812 0.0859375 3.21875 0.015625 C 2.800781 -0.046875 2.40625 -0.144531 2.03125 -0.28125 C 1.664062 -0.414062 1.335938 -0.582031 1.046875 -0.78125 C 0.910156 -0.882812 0.816406 -1 0.765625 -1.125 C 0.710938 -1.257812 0.695312 -1.390625 0.71875 -1.515625 C 0.738281 -1.648438 0.789062 -1.765625 0.875 -1.859375 C 0.957031 -1.953125 1.0625 -2.007812 1.1875 -2.03125 C 1.3125 -2.0625 1.453125 -2.023438 1.609375 -1.921875 C 2.023438 -1.640625 2.46875 -1.4375 2.9375 -1.3125 C 3.414062 -1.1875 3.9375 -1.125 4.5 -1.125 C 5.300781 -1.125 5.894531 -1.265625 6.28125 -1.546875 C 6.664062 -1.835938 6.859375 -2.21875 6.859375 -2.6875 C 6.859375 -3.0625 6.71875 -3.359375 6.4375 -3.578125 C 6.164062 -3.804688 5.707031 -3.984375 5.0625 -4.109375 L 3.546875 -4.421875 C 2.648438 -4.609375 1.976562 -4.921875 1.53125 -5.359375 C 1.09375 -5.796875 0.875 -6.382812 0.875 -7.125 C 0.875 -7.5625 0.96875 -7.960938 1.15625 -8.328125 C 1.34375 -8.703125 1.597656 -9.023438 1.921875 -9.296875 C 2.253906 -9.566406 2.648438 -9.769531 3.109375 -9.90625 C 3.578125 -10.050781 4.085938 -10.125 4.640625 -10.125 C 5.222656 -10.125 5.769531 -10.046875 6.28125 -9.890625 C 6.800781 -9.742188 7.265625 -9.515625 7.671875 -9.203125 C 7.796875 -9.117188 7.878906 -9.015625 7.921875 -8.890625 C 7.960938 -8.765625 7.972656 -8.640625 7.953125 -8.515625 C 7.929688 -8.390625 7.875 -8.285156 7.78125 -8.203125 C 7.695312 -8.117188 7.585938 -8.066406 7.453125 -8.046875 C 7.328125 -8.035156 7.179688 -8.082031 7.015625 -8.1875 C 6.648438 -8.4375 6.273438 -8.613281 5.890625 -8.71875 C 5.515625 -8.820312 5.09375 -8.875 4.625 -8.875 C 4.164062 -8.875 3.757812 -8.800781 3.40625 -8.65625 C 3.0625 -8.519531 2.796875 -8.320312 2.609375 -8.0625 C 2.429688 -7.8125 2.34375 -7.515625 2.34375 -7.171875 C 2.34375 -6.765625 2.46875 -6.441406 2.71875 -6.203125 C 2.976562 -5.972656 3.40625 -5.796875 4 -5.671875 L 5.5 -5.359375 C 6.445312 -5.160156 7.148438 -4.851562 7.609375 -4.4375 C 8.078125 -4.019531 8.3125 -3.46875 8.3125 -2.78125 C 8.3125 -2.332031 8.222656 -1.929688 8.046875 -1.578125 C 7.867188 -1.222656 7.613281 -0.914062 7.28125 -0.65625 C 6.945312 -0.40625 6.546875 -0.210938 6.078125 -0.078125 C 5.609375 0.0546875 5.082031 0.125 4.5 0.125 Z M 4.5 0.125 "/></g></g></g><g fill="#545454" fill-opacity="1"><g transform="translate(426.390924, 137.293933)"><g><path d="M 4.296875 0.09375 C 4.054688 0.09375 3.875 0.03125 3.75 -0.09375 C 3.625 -0.226562 3.5625 -0.421875 3.5625 -0.671875 L 3.5625 -5.171875 L 3.890625 -4.234375 L 0.390625 -9.09375 C 0.285156 -9.238281 0.234375 -9.390625 0.234375 -9.546875 C 0.242188 -9.703125 0.304688 -9.832031 0.421875 -9.9375 C 0.546875 -10.039062 0.707031 -10.09375 0.90625 -10.09375 C 1.0625 -10.09375 1.203125 -10.054688 1.328125 -9.984375 C 1.453125 -9.910156 1.570312 -9.796875 1.6875 -9.640625 L 4.5 -5.734375 L 4.15625 -5.734375 L 6.96875 -9.640625 C 7.09375 -9.804688 7.207031 -9.921875 7.3125 -9.984375 C 7.425781 -10.054688 7.570312 -10.09375 7.75 -10.09375 C 7.945312 -10.09375 8.097656 -10.039062 8.203125 -9.9375 C 8.316406 -9.84375 8.375 -9.71875 8.375 -9.5625 C 8.382812 -9.40625 8.328125 -9.242188 8.203125 -9.078125 L 4.71875 -4.234375 L 5.015625 -5.171875 L 5.015625 -0.671875 C 5.015625 -0.160156 4.773438 0.09375 4.296875 0.09375 Z M 4.296875 0.09375 "/></g></g></g><g fill="#545454" fill-opacity="1"><g transform="translate(446.347641, 137.293933)"><g><path d="M 4.5 0.125 C 4.0625 0.125 3.632812 0.0859375 3.21875 0.015625 C 2.800781 -0.046875 2.40625 -0.144531 2.03125 -0.28125 C 1.664062 -0.414062 1.335938 -0.582031 1.046875 -0.78125 C 0.910156 -0.882812 0.816406 -1 0.765625 -1.125 C 0.710938 -1.257812 0.695312 -1.390625 0.71875 -1.515625 C 0.738281 -1.648438 0.789062 -1.765625 0.875 -1.859375 C 0.957031 -1.953125 1.0625 -2.007812 1.1875 -2.03125 C 1.3125 -2.0625 1.453125 -2.023438 1.609375 -1.921875 C 2.023438 -1.640625 2.46875 -1.4375 2.9375 -1.3125 C 3.414062 -1.1875 3.9375 -1.125 4.5 -1.125 C 5.300781 -1.125 5.894531 -1.265625 6.28125 -1.546875 C 6.664062 -1.835938 6.859375 -2.21875 6.859375 -2.6875 C 6.859375 -3.0625 6.71875 -3.359375 6.4375 -3.578125 C 6.164062 -3.804688 5.707031 -3.984375 5.0625 -4.109375 L 3.546875 -4.421875 C 2.648438 -4.609375 1.976562 -4.921875 1.53125 -5.359375 C 1.09375 -5.796875 0.875 -6.382812 0.875 -7.125 C 0.875 -7.5625 0.96875 -7.960938 1.15625 -8.328125 C 1.34375 -8.703125 1.597656 -9.023438 1.921875 -9.296875 C 2.253906 -9.566406 2.648438 -9.769531 3.109375 -9.90625 C 3.578125 -10.050781 4.085938 -10.125 4.640625 -10.125 C 5.222656 -10.125 5.769531 -10.046875 6.28125 -9.890625 C 6.800781 -9.742188 7.265625 -9.515625 7.671875 -9.203125 C 7.796875 -9.117188 7.878906 -9.015625 7.921875 -8.890625 C 7.960938 -8.765625 7.972656 -8.640625 7.953125 -8.515625 C 7.929688 -8.390625 7.875 -8.285156 7.78125 -8.203125 C 7.695312 -8.117188 7.585938 -8.066406 7.453125 -8.046875 C 7.328125 -8.035156 7.179688 -8.082031 7.015625 -8.1875 C 6.648438 -8.4375 6.273438 -8.613281 5.890625 -8.71875 C 5.515625 -8.820312 5.09375 -8.875 4.625 -8.875 C 4.164062 -8.875 3.757812 -8.800781 3.40625 -8.65625 C 3.0625 -8.519531 2.796875 -8.320312 2.609375 -8.0625 C 2.429688 -7.8125 2.34375 -7.515625 2.34375 -7.171875 C 2.34375 -6.765625 2.46875 -6.441406 2.71875 -6.203125 C 2.976562 -5.972656 3.40625 -5.796875 4 -5.671875 L 5.5 -5.359375 C 6.445312 -5.160156 7.148438 -4.851562 7.609375 -4.4375 C 8.078125 -4.019531 8.3125 -3.46875 8.3125 -2.78125 C 8.3125 -2.332031 8.222656 -1.929688 8.046875 -1.578125 C 7.867188 -1.222656 7.613281 -0.914062 7.28125 -0.65625 C 6.945312 -0.40625 6.546875 -0.210938 6.078125 -0.078125 C 5.609375 0.0546875 5.082031 0.125 4.5 0.125 Z M 4.5 0.125 "/></g></g></g><g fill="#545454" fill-opacity="1"><g transform="translate(466.531438, 137.293933)"><g><path d="M 4.34375 0.09375 C 4.101562 0.09375 3.921875 0.03125 3.796875 -0.09375 C 3.671875 -0.226562 3.609375 -0.414062 3.609375 -0.65625 L 3.609375 -8.765625 L 0.59375 -8.765625 C 0.394531 -8.765625 0.238281 -8.816406 0.125 -8.921875 C 0.0078125 -9.035156 -0.046875 -9.191406 -0.046875 -9.390625 C -0.046875 -9.585938 0.0078125 -9.738281 0.125 -9.84375 C 0.238281 -9.945312 0.394531 -10 0.59375 -10 L 8.078125 -10 C 8.285156 -10 8.441406 -9.945312 8.546875 -9.84375 C 8.660156 -9.738281 8.71875 -9.585938 8.71875 -9.390625 C 8.71875 -9.191406 8.660156 -9.035156 8.546875 -8.921875 C 8.441406 -8.816406 8.285156 -8.765625 8.078125 -8.765625 L 5.0625 -8.765625 L 5.0625 -0.65625 C 5.0625 -0.414062 5 -0.226562 4.875 -0.09375 C 4.757812 0.03125 4.582031 0.09375 4.34375 0.09375 Z M 4.34375 0.09375 "/></g></g></g><g fill="#545454" fill-opacity="1"><g transform="translate(486.559121, 137.293933)"><g><path d="M 1.953125 0 C 1.703125 0 1.503906 -0.0664062 1.359375 -0.203125 C 1.222656 -0.335938 1.15625 -0.535156 1.15625 -0.796875 L 1.15625 -9.203125 C 1.15625 -9.460938 1.222656 -9.660156 1.359375 -9.796875 C 1.503906 -9.929688 1.703125 -10 1.953125 -10 L 7.140625 -10 C 7.335938 -10 7.488281 -9.945312 7.59375 -9.84375 C 7.695312 -9.75 7.75 -9.609375 7.75 -9.421875 C 7.75 -9.222656 7.695312 -9.070312 7.59375 -8.96875 C 7.488281 -8.863281 7.335938 -8.8125 7.140625 -8.8125 L 2.578125 -8.8125 L 2.578125 -5.671875 L 6.828125 -5.671875 C 7.035156 -5.671875 7.1875 -5.617188 7.28125 -5.515625 C 7.382812 -5.410156 7.4375 -5.265625 7.4375 -5.078125 C 7.4375 -4.878906 7.382812 -4.726562 7.28125 -4.625 C 7.1875 -4.53125 7.035156 -4.484375 6.828125 -4.484375 L 2.578125 -4.484375 L 2.578125 -1.1875 L 7.140625 -1.1875 C 7.335938 -1.1875 7.488281 -1.132812 7.59375 -1.03125 C 7.695312 -0.925781 7.75 -0.78125 7.75 -0.59375 C 7.75 -0.394531 7.695312 -0.242188 7.59375 -0.140625 C 7.488281 -0.046875 7.335938 0 7.140625 0 Z M 1.953125 0 "/></g></g></g><g fill="#545454" fill-opacity="1"><g transform="translate(506.274574, 137.293933)"><g><path d="M 1.875 0.09375 C 1.65625 0.09375 1.484375 0.0351562 1.359375 -0.078125 C 1.242188 -0.203125 1.1875 -0.375 1.1875 -0.59375 L 1.1875 -9.40625 C 1.1875 -9.632812 1.25 -9.804688 1.375 -9.921875 C 1.5 -10.035156 1.664062 -10.09375 1.875 -10.09375 C 2.070312 -10.09375 2.222656 -10.054688 2.328125 -9.984375 C 2.441406 -9.921875 2.546875 -9.800781 2.640625 -9.625 L 6.359375 -2.6875 L 5.921875 -2.6875 L 9.625 -9.625 C 9.71875 -9.800781 9.816406 -9.921875 9.921875 -9.984375 C 10.023438 -10.054688 10.175781 -10.09375 10.375 -10.09375 C 10.582031 -10.09375 10.742188 -10.035156 10.859375 -9.921875 C 10.972656 -9.804688 11.03125 -9.632812 11.03125 -9.40625 L 11.03125 -0.59375 C 11.03125 -0.375 10.972656 -0.203125 10.859375 -0.078125 C 10.753906 0.0351562 10.59375 0.09375 10.375 0.09375 C 10.15625 0.09375 9.988281 0.0351562 9.875 -0.078125 C 9.757812 -0.203125 9.703125 -0.375 9.703125 -0.59375 L 9.703125 -7.921875 L 10.015625 -7.921875 L 6.71875 -1.828125 C 6.644531 -1.691406 6.566406 -1.585938 6.484375 -1.515625 C 6.398438 -1.453125 6.28125 -1.421875 6.125 -1.421875 C 5.976562 -1.421875 5.859375 -1.453125 5.765625 -1.515625 C 5.671875 -1.585938 5.582031 -1.691406 5.5 -1.828125 L 2.1875 -7.9375 L 2.53125 -7.9375 L 2.53125 -0.59375 C 2.53125 -0.375 2.472656 -0.203125 2.359375 -0.078125 C 2.253906 0.0351562 2.09375 0.09375 1.875 0.09375 Z M 1.875 0.09375 "/></g></g></g></svg>